<svg width="137" height="26" viewBox="0 0 137 26" fill="none" xmlns="http://www.w3.org/2000/svg">
<path d="M11.5 0L14.0819 8.71858L22.4371 8.71858L15.6776 14.107L18.2595 22.8255L11.5 17.4372L4.74047 22.8255L7.32238 14.107L0.56285 8.71858L8.91809 8.71858L11.5 0Z" fill="#EAFE08" fill-opacity="0.89"/>
<path d="M41.5 0L44.0819 8.71858L52.4371 8.71858L45.6776 14.107L48.2595 22.8255L41.5 17.4372L34.7405 22.8255L37.3224 14.107L30.5628 8.71858L38.9181 8.71858L41.5 0Z" fill="#EAFE08" fill-opacity="0.89"/>
<path d="M68.5 0L71.0819 8.71858L79.4371 8.71858L72.6776 14.107L75.2595 22.8255L68.5 17.4372L61.7405 22.8255L64.3224 14.107L57.5628 8.71858L65.9181 8.71858L68.5 0Z" fill="#EAFE08" fill-opacity="0.89"/>
<path d="M98.5 0L101.082 8.71858L109.437 8.71858L102.678 14.107L105.26 22.8255L98.5 17.4372L91.7405 22.8255L94.3224 14.107L87.5628 8.71858L95.9181 8.71858L98.5 0Z" fill="#EAFE08" fill-opacity="0.89"/>
<path d="M125.5 0.764648L128.082 9.48323L136.437 9.48323L129.678 14.8716L132.26 23.5902L125.5 18.2018L118.74 23.5902L121.322 14.8716L114.563 9.48323L122.918 9.48323L125.5 0.764648Z" fill="#EAFE08" fill-opacity="0.89"/>
</svg>
