<svg width="137" height="25" viewBox="0 0 137 25" fill="none" xmlns="http://www.w3.org/2000/svg">
<path d="M11.5 0.42749L14.0819 8.4004H22.4371L15.6776 13.3279L18.2595 21.3008L11.5 16.3733L4.74047 21.3008L7.32238 13.3279L0.56285 8.4004H8.91809L11.5 0.42749Z" fill="#EAFE08" fill-opacity="0.89"/>
<path d="M41.5 0.42749L44.0819 8.4004H52.4371L45.6776 13.3279L48.2595 21.3008L41.5 16.3733L34.7405 21.3008L37.3224 13.3279L30.5628 8.4004H38.9181L41.5 0.42749Z" fill="#EAFE08" fill-opacity="0.89"/>
<path d="M68.5 0.42749L71.0819 8.4004H79.4371L72.6776 13.3279L75.2595 21.3008L68.5 16.3733L61.7405 21.3008L64.3224 13.3279L57.5628 8.4004H65.9181L68.5 0.42749Z" fill="#EAFE08" fill-opacity="0.89"/>
<path d="M68.5 2.05042L70.6062 8.55444L70.7183 8.9004H71.0819H77.9025L72.3831 12.9239L72.0903 13.1373L72.2019 13.482L74.3093 19.9894L68.7945 15.9693L68.5 15.7546L68.2055 15.9693L62.6907 19.9894L64.7981 13.482L64.9097 13.1373L64.6169 12.9239L59.0975 8.9004H65.9181H66.2817L66.3938 8.55444L68.5 2.05042Z" stroke="#EAFE08" stroke-opacity="0.89"/>
<path d="M98.5 2.05042L100.606 8.55444L100.718 8.9004H101.082H107.902L102.383 12.9239L102.09 13.1373L102.202 13.482L104.309 19.9894L98.7945 15.9693L98.5 15.7546L98.2055 15.9693L92.6907 19.9894L94.7981 13.482L94.9097 13.1373L94.6169 12.9239L89.0975 8.9004H95.9181H96.2817L96.3938 8.55444L98.5 2.05042Z" fill="white" stroke="#D9D9D9"/>
<path d="M125.5 2.74964L127.606 9.25366L127.718 9.59962H128.082H134.902L129.383 13.6231L129.09 13.8365L129.202 14.1812L131.309 20.6886L125.795 16.6685L125.5 16.4538L125.205 16.6685L119.691 20.6886L121.798 14.1812L121.91 13.8365L121.617 13.6231L116.098 9.59962H122.918H123.282L123.394 9.25366L125.5 2.74964Z" fill="white" stroke="#E5E5E5"/>
</svg>
