<svg width="95" height="72" viewBox="0 0 95 72" fill="none" xmlns="http://www.w3.org/2000/svg">
<rect width="95" height="72" fill="white"/>
<path fill-rule="evenodd" clip-rule="evenodd" d="M54.1354 12.9488C52.4431 7.68373 42.5569 7.68373 40.8646 12.9488C40.612 13.74 40.1164 14.4748 39.4183 15.0934C38.7202 15.712 37.8392 16.1969 36.8471 16.5087C35.855 16.8205 34.7797 16.9504 33.7089 16.8878C32.638 16.8252 31.6017 16.5718 30.6845 16.1484C24.5746 13.3268 17.583 18.6256 21.3059 23.2562C23.7107 26.2465 21.5775 30.1481 17.0887 30.975C10.1371 32.2541 10.1371 39.7501 17.0887 41.0259C18.1329 41.2176 19.1025 41.5935 19.9188 42.123C20.735 42.6525 21.3747 43.3206 21.7857 44.0729C22.1967 44.8253 22.3675 45.6405 22.2841 46.4523C22.2008 47.2641 21.8656 48.0496 21.3059 48.7446C17.583 53.3752 24.5746 58.674 30.6845 55.8525C31.6016 55.4283 32.6379 55.1743 33.7091 55.1111C34.7802 55.0479 35.8559 55.1773 36.8486 55.4889C37.8413 55.8004 38.7228 56.2852 39.4215 56.9038C40.1201 57.5224 40.6161 58.2573 40.8691 59.0487C42.5569 64.3171 52.4476 64.3171 54.1309 59.0487C54.3847 58.2577 54.8812 57.5233 55.58 56.9051C56.2788 56.2869 57.1602 55.8024 58.1526 55.491C59.145 55.1796 60.2203 55.05 61.2911 55.1128C62.362 55.1756 63.3982 55.4291 64.3155 55.8525C70.4254 58.674 77.417 53.3752 73.6941 48.7446C73.1354 48.0494 72.801 47.2641 72.7182 46.4525C72.6353 45.6409 72.8063 44.8259 73.2172 44.0738C73.6281 43.3218 74.2674 42.6537 75.083 42.1241C75.8987 41.5945 76.8677 41.2182 77.9113 41.0259C84.8629 39.7467 84.8629 32.2507 77.9113 30.975C76.8671 30.7832 75.8975 30.4073 75.0812 29.8778C74.265 29.3483 73.6253 28.6802 73.2143 27.9279C72.8033 27.1756 72.6325 26.3603 72.7159 25.5485C72.7992 24.7367 73.1344 23.9513 73.6941 23.2562C77.417 18.6256 70.4254 13.3268 64.3155 16.1484C63.3984 16.5725 62.3621 16.8266 61.2909 16.8898C60.2198 16.9529 59.1441 16.8235 58.1514 16.512C57.1587 16.2005 56.2772 15.7157 55.5785 15.0971C54.8799 14.4785 54.3839 13.7436 54.1309 12.9522L54.1354 12.9488Z" stroke="black" stroke-width="2"/>
<path d="M55.4167 36C55.4167 39.3137 51.8723 42 47.5 42C43.1277 42 39.5833 39.3137 39.5833 36C39.5833 32.6863 43.1277 30 47.5 30C51.8723 30 55.4167 32.6863 55.4167 36Z" stroke="black" stroke-width="2"/>
</svg>
